<svg id="Layer_1" data-name="Layer 1" xmlns="http://www.w3.org/2000/svg" viewBox="0 0 155.15 107.34"><defs><style>.cls-1{fill:#233f94;}.cls-2{fill:#ea7424;}</style></defs><path class="cls-1" d="M22.42,135.73c4,0,8.06,0,12.09,0,.43,0,.39.29.43.54.52,2.64,1.87,4.6,4.56,5.37a8.26,8.26,0,0,0,4.87-.14A5.81,5.81,0,0,0,48.1,138a6.85,6.85,0,0,0,.52-2.23,18.37,18.37,0,0,0-.37-6.05,5.26,5.26,0,0,0-5.51-4.16c-1.6,0-3.19,0-4.78,0-.36,0-.52,0-.51-.46q0-5.36,0-10.71c0-.37.11-.46.46-.45,1.52,0,3,0,4.56,0a4.42,4.42,0,0,0,4.79-3.63,13.32,13.32,0,0,0,.14-6.15c-.94-4.58-6-4.85-8.46-2.83a8.81,8.81,0,0,0-2.89,5c-.22.89-.21.89-1.14.89H24c-.3,0-.52,0-.47-.42.6-5.63,2.61-10.56,7.09-14.24A18.46,18.46,0,0,1,42,88.51a22.83,22.83,0,0,1,8.9,1.24,13.9,13.9,0,0,1,9.33,11.18,24.75,24.75,0,0,1,.05,9.12,12.41,12.41,0,0,1-7.38,9.21l-.64.29s0,.06-.06.09c5.23,1.4,8.05,5,9,10.13a27.36,27.36,0,0,1-.25,11.81,14.29,14.29,0,0,1-10.07,10.79,24.94,24.94,0,0,1-18.16-.86c-5.84-2.62-9.13-7.28-10.09-13.59,0-.29,0-.62-.2-.87Z" transform="translate(-22.42 -46.33)"/><path class="cls-1" d="M151.19,46.33a10.34,10.34,0,0,0,2.07.3A28.44,28.44,0,0,1,145.62,103c-.37,0-.54-.16-.58-.55-.08-.67-.22-1.34-.35-2s-.12-.61.56-.5a23,23,0,0,0,10.17-.48c10.5-3,17-10,18.88-20.72a25.48,25.48,0,1,0-48.44,6.38l.16.36h-3c-.32,0-.32-.27-.39-.46a26.77,26.77,0,0,1-1.74-7,27.45,27.45,0,0,1,2.84-15.91A28.07,28.07,0,0,1,145,46.63a12.13,12.13,0,0,0,2.08-.3Z" transform="translate(-22.42 -46.33)"/><path class="cls-1" d="M142.45,121c0,4.77,0,9.55,0,14.33a22.65,22.65,0,0,1-1,7.08,14.73,14.73,0,0,1-10.16,10.06,26.52,26.52,0,0,1-16,0c-5.93-1.87-9.33-6.09-10.6-12.09a22.8,22.8,0,0,1-.45-4.74c0-9.94,0-19.87,0-29.81a18.93,18.93,0,0,1,2-8.83,14.5,14.5,0,0,1,8.86-7.39,27,27,0,0,1,16.15-.06c5.91,1.81,9.34,5.94,10.63,11.92a24.79,24.79,0,0,1,.49,5.23C142.46,111.42,142.45,116.19,142.45,121Zm-12,0c0-3.93,0-7.86,0-11.8a14.77,14.77,0,0,0-.65-4.48,6.08,6.08,0,0,0-4-4.38,7.26,7.26,0,0,0-2.11-.33c-2.82,0-5.13.84-6.4,3.91a14.2,14.2,0,0,0-.93,5.47q0,11.61,0,23.22a18.31,18.31,0,0,0,.38,3.76c.73,3.46,2.61,5.32,5.94,5.61s5.87-1,7-4.43a14.4,14.4,0,0,0,.72-4.69C130.42,128.86,130.4,124.91,130.4,121Z" transform="translate(-22.42 -46.33)"/><path class="cls-1" d="M82.47,115.23a15.91,15.91,0,0,1,5,0,14.41,14.41,0,0,1,12.61,10.23,27.66,27.66,0,0,1,1.15,11.75,20.36,20.36,0,0,1-2.32,8,14.91,14.91,0,0,1-9,7.37,23.75,23.75,0,0,1-14.21.06c-6-1.82-9.52-6-11-12a29.82,29.82,0,0,1,0-13.06,57.78,57.78,0,0,1,4.8-13.3c3.91-8.18,7.75-16.4,11.61-24.61a.68.68,0,0,1,.74-.45c4.17,0,8.35,0,12.52,0,.6,0,.6,0,.33.55l-12,24.9Zm-6.38,19.69c0,.25,0,.73.06,1.2a5.9,5.9,0,0,0,4.39,5.59,8.46,8.46,0,0,0,4,.08,5.49,5.49,0,0,0,4.38-3.92A11.28,11.28,0,0,0,88.8,131a5.75,5.75,0,0,0-5.2-4.36c-3.19-.34-5.8,1-6.93,4.26A12.55,12.55,0,0,0,76.09,134.92Z" transform="translate(-22.42 -46.33)"/><path class="cls-2" d="M152.05,80.87c0-2.8,0-5.6,0-8.4,0-.47-.13-.6-.58-.56s-1,0-1.48,0c-.32,0-.46,0-.45-.41,0-1.48,0-3,0-4.44,0-.31.08-.42.4-.41.57,0,1.14,0,1.7,0,.32,0,.41-.1.4-.41,0-1,0-2.05,0-3.07a7.24,7.24,0,0,1,.18-1.74,4.65,4.65,0,0,1,4.75-4c1.58-.1,3.18,0,4.77,0,.24,0,.32.07.32.31q0,2.42,0,4.83c0,.27-.09.35-.35.34h-2.09a1.21,1.21,0,0,0-1.4,1.15,16.77,16.77,0,0,0-.06,2.35c0,.34.24.26.42.26,1,0,2,0,3,0,.36,0,.46.1.45.46,0,1.46,0,2.93,0,4.39,0,.35-.11.42-.44.42-1,0-1.94,0-2.91,0-.46,0-.56.13-.56.57q0,8.33,0,16.64c0,.84.09.71-.74.72-1.63,0-3.26,0-4.89,0-.42,0-.5-.13-.5-.53Q152.06,85.11,152.05,80.87Z" transform="translate(-22.42 -46.33)"/><path class="cls-2" d="M138,78.56c0-2,0-4,0-6,0-.46-.06-.67-.58-.61s-1,0-1.48,0c-.26,0-.35-.06-.35-.33q0-2.28,0-4.56c0-.28.08-.38.37-.37.51,0,1,0,1.54,0s.51-.13.5-.53c0-1.88,0-3.76,0-5.65,0-.4.06-.56.52-.55,1.72,0,3.44,0,5.16,0,.39,0,.49.1.49.49,0,1.92,0,3.84,0,5.76,0,.38.1.5.49.48.63,0,1.28,0,1.92,0,.34,0,.43.11.43.44,0,1.46,0,2.92,0,4.39,0,.32-.07.45-.42.44-.66,0-1.32,0-2,0-.32,0-.44.06-.44.42,0,3.38,0,6.77,0,10.15,0,1.12.47,1.56,1.57,1.57,1.25,0,1.25,0,1.25,1.26s0,2.74,0,4.11c0,.45-.14.56-.55.54a39.24,39.24,0,0,1-4.06-.12,4.68,4.68,0,0,1-4.25-4.32,36.27,36.27,0,0,1-.12-4.66C138,80.09,138,79.32,138,78.56Z" transform="translate(-22.42 -46.33)"/></svg>