<?xml version="1.0" encoding="UTF-8"?>
<!-- Generator: Adobe Illustrator 26.0.0, SVG Export Plug-In . SVG Version: 6.00 Build 0)  -->
<svg xmlns="http://www.w3.org/2000/svg" xmlns:xlink="http://www.w3.org/1999/xlink" version="1.1" id="Layer_1" x="0px" y="0px" viewBox="0 0 122.9 122.3" style="enable-background:new 0 0 122.9 122.3;" xml:space="preserve">
<style type="text/css">
	.st0{fill:#E87405;}
</style>
<g>
	<path class="st0" d="M33.8,50.2c4.1,7.5,8.9,14.6,15.1,21.1c6.2,6.6,13.9,12.5,23.9,17.6c0.7,0.4,1.4,0.4,2.1,0.1   c0.9-0.4,1.9-1.2,2.9-2.1c0.7-0.7,1.7-1.9,2.6-3.2c3.8-5.1,8.6-11.3,15.3-8.2c0.2,0.1,0.3,0.2,0.4,0.2l22.4,12.9   c0.1,0,0.2,0.1,0.2,0.2c2.9,2,4.2,5.2,4.2,8.7c0,3.6-1.3,7.7-3.3,11.1c-2.6,4.5-6.4,7.5-10.8,9.5c-4.2,1.9-8.8,2.9-13.3,3.6   c-7,1-13.6,0.4-20.3-1.7c-6.6-2-13.2-5.4-20.4-9.8l-0.5-0.3c-3.3-2.1-6.9-4.3-10.4-6.9C31.1,93.3,18,79.3,9.5,63.9   C2.3,51-1.5,37,0.6,23.7c1.2-7.3,4.3-13.9,9.8-18.3c4.8-3.8,11.2-5.9,19.5-5.2c1,0.1,1.8,0.6,2.2,1.4l14.3,24.3   c2.1,2.7,2.4,5.4,1.2,8.1c-1,2.2-2.9,4.2-5.5,6.2c-0.8,0.7-1.7,1.3-2.7,2C36.3,44.5,32.6,47.2,33.8,50.2L33.8,50.2L33.8,50.2   L33.8,50.2z"></path>
</g>
</svg>
