<?xml version="1.0" encoding="UTF-8"?>
<svg xmlns="http://www.w3.org/2000/svg" id="Layer_1" data-name="Layer 1" viewBox="0 0 196.59 136.01">
  <defs>
    <style>.cls-1{fill:#233f94;}.cls-2{fill:#ea7424;}</style>
  </defs>
  <path class="cls-1" d="M1.7,145.27l15.32,0c.55,0,.49.36.55.68.66,3.34,2.37,5.82,5.77,6.8a10.47,10.47,0,0,0,6.17-.18,7.34,7.34,0,0,0,4.73-4.38,8.6,8.6,0,0,0,.66-2.82,23.55,23.55,0,0,0-.47-7.67,6.67,6.67,0,0,0-7-5.27c-2,0-4,0-6.05,0-.45,0-.65-.06-.65-.59q0-6.78,0-13.56c0-.47.14-.58.59-.57,1.92,0,3.85,0,5.77,0,3.28,0,5.21-1.43,6.07-4.6a16.68,16.68,0,0,0,.18-7.79c-1.19-5.81-7.56-6.14-10.72-3.59A11.16,11.16,0,0,0,19,108c-.28,1.13-.26,1.13-1.45,1.13H3.67c-.38,0-.65,0-.59-.54.77-7.13,3.31-13.38,9-18a23.35,23.35,0,0,1,14.39-5.15A29,29,0,0,1,37.74,87a17.57,17.57,0,0,1,11.81,14.16,31.15,31.15,0,0,1,.07,11.55c-1,5.49-4.33,9.3-9.35,11.67l-.81.38s-.05.07-.08.11c6.63,1.76,10.2,6.33,11.44,12.83a34.68,34.68,0,0,1-.31,15,18.12,18.12,0,0,1-12.76,13.66,31.6,31.6,0,0,1-23-1.08C7.33,162,3.17,156.05,2,148.05c-.06-.37,0-.78-.26-1.11Z" transform="translate(-1.7 -31.99)"></path>
  <path class="cls-1" d="M164.86,32a12.75,12.75,0,0,0,2.62.39,36,36,0,0,1-9.68,71.41c-.46-.06-.68-.21-.74-.7-.09-.85-.27-1.69-.43-2.53s-.16-.77.7-.63a29.07,29.07,0,0,0,12.89-.62c13.3-3.86,21.53-12.61,23.92-26.25,3-17-8.6-33.34-25.57-36.72a32.39,32.39,0,0,0-37.93,25.11,31.93,31.93,0,0,0,2.13,19.7c.06.15.13.29.2.46h-3.81c-.39,0-.39-.35-.49-.59a34.45,34.45,0,0,1-2.2-8.93,34.87,34.87,0,0,1,3.59-20.16q8.61-16.45,27-19.55a14.89,14.89,0,0,0,2.64-.39Z" transform="translate(-1.7 -31.99)"></path>
  <path class="cls-1" d="M153.79,126.57q0,9.08,0,18.15a29.05,29.05,0,0,1-1.25,9,18.65,18.65,0,0,1-12.87,12.75,33.75,33.75,0,0,1-20.26,0c-7.52-2.37-11.82-7.71-13.43-15.32a28.87,28.87,0,0,1-.57-6c0-12.59,0-25.18,0-37.77A23.91,23.91,0,0,1,108,96.12a18.39,18.39,0,0,1,11.22-9.36,34.28,34.28,0,0,1,20.47-.08c7.48,2.29,11.83,7.53,13.46,15.1a31.5,31.5,0,0,1,.63,6.63Q153.81,117.48,153.79,126.57Zm-15.27,0c0-5,0-10,0-15a18.61,18.61,0,0,0-.81-5.69c-.84-2.62-2.31-4.68-5.08-5.54A9,9,0,0,0,130,100c-3.58,0-6.5,1.06-8.11,5a17.86,17.86,0,0,0-1.18,6.94q0,14.7,0,29.42a23.71,23.71,0,0,0,.49,4.75c.92,4.4,3.31,6.75,7.52,7.12s7.44-1.23,8.93-5.61a18.85,18.85,0,0,0,.91-6C138.54,136.56,138.52,131.56,138.52,126.55Z" transform="translate(-1.7 -31.99)"></path>
  <path class="cls-1" d="M77.79,119.29a20.45,20.45,0,0,1,6.34-.05c8,1,13.34,5.36,16,13a34.93,34.93,0,0,1,1.46,14.89,25.91,25.91,0,0,1-2.94,10.13,18.9,18.9,0,0,1-11.42,9.34,30.15,30.15,0,0,1-18,.08c-7.59-2.32-12.07-7.63-13.89-15.24a37.68,37.68,0,0,1,.06-16.54A72.69,72.69,0,0,1,61.45,118c5-10.37,9.83-20.78,14.71-31.19a.89.89,0,0,1,.94-.58c5.29,0,10.58,0,15.87,0,.76,0,.76,0,.42.7L78.15,118.48C78,118.71,77.94,118.94,77.79,119.29Zm-8.09,25c0,.32,0,.92.08,1.52a7.48,7.48,0,0,0,5.57,7.08,10.65,10.65,0,0,0,5,.1,7,7,0,0,0,5.56-5,14.29,14.29,0,0,0-.12-8.68,7.27,7.27,0,0,0-6.6-5.51c-4-.44-7.33,1.22-8.77,5.39A15.76,15.76,0,0,0,69.7,144.25Z" transform="translate(-1.7 -31.99)"></path>
  <path class="cls-2" d="M166,75.76c0-3.55,0-7.09,0-10.64,0-.59-.17-.76-.73-.71s-1.26,0-1.88,0c-.4,0-.58-.06-.57-.52,0-1.88,0-3.76,0-5.64,0-.39.11-.53.51-.52.72,0,1.44,0,2.16,0,.4,0,.51-.13.5-.52,0-1.3,0-2.6,0-3.89a9.6,9.6,0,0,1,.24-2.21c.71-3.17,2.65-4.86,6-5.06,2-.11,4,0,6.05-.05.3,0,.4.09.4.4q0,3.06,0,6.12c0,.34-.11.44-.44.43-.88,0-1.76,0-2.64,0a1.55,1.55,0,0,0-1.78,1.46,19.75,19.75,0,0,0-.07,3c0,.42.3.33.53.33,1.28,0,2.56,0,3.83,0,.46,0,.58.13.58.59,0,1.85,0,3.71,0,5.56,0,.45-.15.54-.56.53-1.22,0-2.45,0-3.68,0-.6,0-.72.17-.72.74q0,10.53,0,21.07c0,1.06.12.91-.93.91-2.07,0-4.13,0-6.19,0-.55,0-.65-.16-.64-.67C166,82.9,166,79.33,166,75.76Z" transform="translate(-1.7 -31.99)"></path>
  <path class="cls-2" d="M148.13,72.83c0-2.55,0-5.1,0-7.65,0-.58-.09-.85-.74-.78s-1.25,0-1.88,0c-.32,0-.44-.09-.44-.43,0-1.92,0-3.85,0-5.77,0-.36.1-.49.47-.48.65,0,1.3,0,1.95,0s.64-.17.64-.67c0-2.38,0-4.77,0-7.16,0-.51.08-.72.66-.71q3.27.06,6.54,0c.49,0,.62.13.62.62,0,2.43,0,4.86,0,7.3,0,.49.13.64.62.61.81,0,1.62,0,2.43,0,.44,0,.56.15.55.56,0,1.86,0,3.71,0,5.56,0,.42-.09.58-.53.56-.84,0-1.67,0-2.51,0-.4,0-.56.07-.56.53,0,4.28,0,8.57,0,12.86,0,1.42.59,2,2,2,1.58,0,1.58,0,1.58,1.59,0,1.74,0,3.48,0,5.22,0,.57-.18.7-.71.67a46.44,46.44,0,0,1-5.14-.14,5.94,5.94,0,0,1-5.38-5.48,48.39,48.39,0,0,1-.16-5.9C148.11,74.78,148.13,73.8,148.13,72.83Z" transform="translate(-1.7 -31.99)"></path>
</svg>
