<?xml version="1.0" encoding="UTF-8"?>
<svg xmlns="http://www.w3.org/2000/svg" viewBox="0 0 1278.8 1279.05">
  <defs>
    <style>.cls-1{fill:#e87405;}</style>
  </defs>
  <g id="Layer_2" data-name="Layer 2">
    <g id="Layer_1-2" data-name="Layer 1">
      <path class="cls-1" d="M608.9.15c-95.2,5.6-176.5,27.1-257.5,67.9A640,640,0,0,0,11.5,515.55C3,558.55,0,591.25,0,639.55c0,40.2,1.1,57,6,91,22.3,156.2,101.2,297.7,222.8,399.7A637.94,637.94,0,0,0,563.4,1275c28.1,3.3,41.6,4.1,76,4.1,35.9,0,48.5-.7,79.5-4.6,211.9-26.1,397.5-157.6,493.3-349.4a633.79,633.79,0,0,0,60.6-194.5c4.9-33.9,6-50.8,6-90.5s-1.2-58.3-6-91.5C1232.7,267.75,1011,46.05,730.4,6.05c-29.8-4.2-48.8-5.6-83-5.9C629.5,0,612.2,0,608.9.15Zm72.3,71.1c32.2,33.9,46.6,50.1,65.9,73.9,42.7,53,80.2,110.8,107.5,166.4,8.2,16.6,20.8,44.3,20.3,44.8-.9.9-25.9,8.1-44.5,12.7-29.3,7.4-51.3,11.7-84,16.5-15,2.2-35.8,4.2-67.7,6.5l-8.3.5v-165c0-130.4.3-165,1.2-165C672.3,62.55,676.6,66.45,681.2,71.25Zm-72.8,158.3v163.1l-7.2-.6c-4-.3-13.8-1-21.8-1.5a784,784,0,0,1-94.5-13.1c-26.4-5.3-74.5-17.9-74.5-19.5,0-.3,3.4-8.2,7.6-17.7,35.6-80.2,85-156.8,147.3-228.4,14.5-16.6,41.2-45.3,42.3-45.3C608,66.55,608.4,140,608.4,229.55ZM512.8,76.75c-.5.7-4.2,5.3-8.4,10.3C445,157.25,393,240.35,358.9,319.65c-4,9.4-7.6,17.3-7.9,17.6-1.4,1.4-58.5-24.9-82.8-38.2-27.9-15.3-63.8-37.5-63.8-39.5s49.6-50.8,62.5-61.4c64-53,130.5-89,206.9-112.1,6.9-2,37.8-10.3,39.4-10.5C513.4,75.55,513.2,76.15,512.8,76.75Zm272.6,3.9c90.7,24.1,169.9,66.8,239.4,128.8,13.3,12,46.8,45.8,48.7,49.2.8,1.6-.5,2.8-10.5,9.3a797.34,797.34,0,0,1-83.1,46.7c-18.3,8.8-43.2,19.9-44.9,19.9-.6,0-4-6.6-7.6-14.8-32.9-75.2-80-150.9-137.4-220.6-7.2-8.7-14.1-17.2-15.4-18.7s-2-2.9-1.5-2.9S779.1,79,785.4,80.65ZM206.1,335.45a813.34,813.34,0,0,0,102.4,52.1c10.7,4.6,19.8,8.6,20.2,9s-.3,4.2-1.7,8.6c-10.3,33.2-20.1,74.1-25.5,107.4-4.3,26-9.1,70.5-9.1,83.8a67.44,67.44,0,0,1-.6,9.1l-.7,3.1-114.1-.2-114.1-.3.3-6c2.3-48.2,13.8-104.5,31.9-156,15.4-43.7,42.2-96.7,65.9-130.2l4.4-6.2,13,8.4C185.5,322.75,198,330.55,206.1,335.45Zm915.6-13.6a580.14,580.14,0,0,1,73.7,160.9c9.3,32.6,17.3,77.2,19.5,108.8.3,4.7.8,10.4,1.1,12.7l.5,4.3H995.7l-.7-12.8c-3.3-58.8-15-123.9-32.7-181.7-2.8-9.4-5.2-17.8-5.3-18.8-.1-1.4,4-3.5,18.3-9.7a863.68,863.68,0,0,0,116.2-61.8c9.6-6.1,18.3-11.7,19.4-12.5s2.3-1.3,2.7-1.1S1117.7,315.65,1121.7,321.85ZM899.5,422.05a716.27,716.27,0,0,1,31.3,154c.8,8.8,1.6,19.6,1.8,24l.3,8-131.2.3-131.3.2V455l19.8-1.2c63.5-3.8,134.7-16.5,191.7-34.1,7.2-2.2,13.6-3.9,14.4-3.8S898.5,418.75,899.5,422.05ZM404.6,422a850.06,850.06,0,0,0,184.1,31.8l19.7,1.2v153.6h-254v-4.4c0-7.3,2.9-40,5.1-56.6a759,759,0,0,1,19-95.6c4.7-17.6,9.8-34.4,10.4-34.4C389.1,417.55,396.2,419.55,404.6,422ZM291.8,672.75a50.5,50.5,0,0,1,.6,8.3c0,8.4,2.6,36.9,5,56a817.15,817.15,0,0,0,33,145.8c2.7,8.3,4.6,15.5,4.2,15.8s-6.3,3-13.2,5.7c-41.1,16.4-87.7,40.3-130.3,67-9.3,5.7-17.2,10.1-17.6,9.6-2.2-2.4-15.7-22.2-21.9-32.1a573.44,573.44,0,0,1-80.1-204.3c-3.3-17.6-6.6-43-7.6-57-.3-4.7-.8-10.4-1.1-12.8l-.5-4.2H291.2Zm316.6,83.7v85.9l-9.7.6c-60.2,3.9-99.5,9.4-150.6,21.1-14.1,3.3-51.4,13.2-52.8,14.1-.7.4-8.4-22.8-13.8-41.6a746.74,746.74,0,0,1-26.7-155.3l-.7-10.7H608.4Zm324.5-78.7c-2.2,28.9-2.9,36.5-5.1,53.8a737.49,737.49,0,0,1-20.5,101c-5.2,18.2-14.8,48-15.5,48-.2,0-5.5-1.5-11.7-3.4a858.33,858.33,0,0,0-117.7-26c-28-4.1-45.5-5.8-82.2-8.2l-9.8-.6V670.55H933.5Zm283.1-3.5c-.3,2.1-.8,7.8-1.1,12.8-5.4,79-32.4,166.4-73.7,238.5-10.3,17.8-31.3,50.3-35.9,55.4-.4.5-8.3-3.8-17.6-9.6-41.1-25.7-91.6-51.8-127.5-65.9-4.9-1.9-8.8-3.9-8.8-4.6a35.34,35.34,0,0,1,2-6.4c3.5-8.9,15-47.7,19.6-66.4a774.52,774.52,0,0,0,21.6-138.3l1.2-19.2h220.8Zm-607.6,384.5-.1,153.3-11.1-11.5c-70.1-72.7-131.3-160.5-170.8-244.9-4.4-9.6-7.9-17.9-7.7-18.5.9-2.1,45-13.2,75.7-19,36-6.8,78.8-11.8,105.8-12.4l8.2-.2Zm105.5-150.6c48.1,4.7,100.5,14.6,142,27,5,1.4,9.8,2.9,10.8,3.1s1.7,1,1.7,1.7c0,2.3-27.3,55.9-37.8,74.1-31.8,55.4-68.1,105.5-114,157.3-20.6,23.3-42.1,45.2-44.3,45.2-1.9,0-1.9-3.8-1.9-155.6V905.25l14.3.7C692.5,906.35,705.7,907.35,713.9,908.15Zm-339,83.9c33.6,69.3,75.1,133.1,127.5,196,7.1,8.5,12.7,15.5,12.4,15.5-1.6,0-23.7-5.6-35.2-8.9-95.8-27.8-180-77.9-251.6-150l-13.9-13.9,8.4-5.5c32.7-21.2,86-48.5,126.9-65l8.5-3.4,2.4,5.1C361.7,964.75,368.2,978.25,374.9,992.05Zm571.2-24.8c31.5,13.4,82.8,40.3,110.2,58l8.4,5.5-14.4,14.5c-63.6,64-138.4,111.2-222.3,140.2-19.7,6.8-53.6,16.6-53.6,15.4,0-.2,5.3-6.8,11.8-14.6,53.7-64.3,99.7-135.9,132.2-205.6,5.2-11.1,10-20.1,10.6-20.1S937.4,963.55,946.1,967.25Z"></path>
    </g>
  </g>
</svg>
